<?xml version="1.0" encoding="utf-8"?>
<!-- Generator: Adobe Illustrator 14.0.0, SVG Export Plug-In . SVG Version: 6.00 Build 43363)  -->
<!DOCTYPE svg PUBLIC "-//W3C//DTD SVG 1.1//EN" "http://www.w3.org/Graphics/SVG/1.1/DTD/svg11.dtd">
<svg version="1.1" id="Layer_1" xmlns="http://www.w3.org/2000/svg" xmlns:xlink="http://www.w3.org/1999/xlink" x="0px" y="0px"
	 width="44px" height="44px" viewBox="8 18 44 44" enable-background="new 8 18 44 44" xml:space="preserve">
<path fill="#F4CD25" d="M51.446,39.769c0-2.407-0.463-4.813-1.203-6.942c-0.277-0.741-0.556-1.388-0.834-2.129
	c-2.129-4.443-5.646-7.96-10.089-10.089c-0.647-0.37-1.388-0.648-2.129-0.833c-2.221-0.833-4.628-1.203-7.126-1.203l0,0l0,0
	c-2.5,0-4.906,0.463-7.127,1.203c-0.74,0.278-1.388,0.556-2.129,0.833c-4.443,2.129-8.053,5.739-10.089,10.182
	c-0.37,0.648-0.648,1.388-0.833,2.128c-0.833,2.222-1.204,4.628-1.204,7.127l0,0l0,0v7.126v7.128v7.127h7.127h7.127v-1.203v-5.924
	v-7.128v-7.126c0-3.98,3.24-7.127,7.127-7.127c3.98,0,7.126,3.24,7.126,7.127v7.126v7.128v5.924v1.203h7.128h7.127v-7.127v-7.128
	v-7.126C51.446,39.954,51.446,39.861,51.446,39.769z"/>
</svg>
